<?xml version="1.0" encoding="UTF-8" standalone="no"?>
<!-- Created with Inkscape (http://www.inkscape.org/) -->

<svg
   width="128"
   height="128"
   viewBox="0 0 128 128"
   version="1.1"
   id="svg5"
   inkscape:version="1.1 (c4e8f9ed74, 2021-05-24)"
   sodipodi:docname="logo.svg"
   xmlns:inkscape="http://www.inkscape.org/namespaces/inkscape"
   xmlns:sodipodi="http://sodipodi.sourceforge.net/DTD/sodipodi-0.dtd"
   xmlns="http://www.w3.org/2000/svg"
   xmlns:svg="http://www.w3.org/2000/svg">
  <sodipodi:namedview
     id="namedview7"
     pagecolor="#ffffff"
     bordercolor="#666666"
     borderopacity="1.0"
     inkscape:pageshadow="2"
     inkscape:pageopacity="0.0"
     inkscape:pagecheckerboard="0"
     inkscape:document-units="px"
     showgrid="false"
     inkscape:zoom="2"
     inkscape:cx="57.25"
     inkscape:cy="50.75"
     inkscape:window-width="1883"
     inkscape:window-height="1056"
     inkscape:window-x="0"
     inkscape:window-y="0"
     inkscape:window-maximized="1"
     inkscape:current-layer="layer1"
     units="px" />
  <defs
     id="defs2">
    <filter
       inkscape:collect="always"
       style="color-interpolation-filters:sRGB"
       id="filter3987"
       x="-0.037039833"
       y="-0.056288535"
       width="1.0740797"
       height="1.1125771">
      <feGaussianBlur
         inkscape:collect="always"
         stdDeviation="2.5263647"
         id="feGaussianBlur3989" />
    </filter>
  </defs>
  <g
     inkscape:label="Layer 1"
     inkscape:groupmode="layer"
     id="layer1">
    <path
       id="path3192"
       style="opacity:1;fill:#000000;stroke-width:0.264583;filter:url(#filter3987)"
       d="m 67.386277,10.148549 c -3.274985,0.071 -6.514525,1.25584 -9.051514,3.33013 -2.726537,2.19891 -4.630812,5.3896 -5.262049,8.83585 -0.238273,1.21071 -0.274564,2.44812 -0.256606,3.67842 0,7.88052 -3e-6,15.76104 0,23.64156 -5.739702,0 -11.479403,0 -17.219105,0 2.033183,-9.3662 4.074142,-18.73086 6.102469,-28.09803 0.22851,-1.16101 -0.09654,-2.38541 -0.779015,-3.33966 -0.930397,-1.32449 -2.311495,-2.24812 -3.724656,-2.99209 -2.378445,-1.2221 -4.967383,-1.98291 -7.580344,-2.51164 -2.333482,-0.44894 -4.721119,-0.72711 -7.098054,-0.52908 -2.779379,0.21494 -5.53821,0.75533 -8.181186,1.64535 -1.859666,0.646 -3.703278,1.46056 -5.2229684,2.73603 -1.033348,0.86796 -1.898372,2.05086 -2.053947,3.42346 -0.128661,0.92082 0.168606,1.82016 0.327525,2.71677 1.810745,8.98296 3.6214924,17.96593 5.4322374,26.94889 -3.0092944,0.004 -6.0187764,-0.008 -9.0279564,0.006 -3.28845904,0.0783 -6.537015,1.28335 -9.073952,3.37844 -2.686427,2.19206 -4.564491,5.34954 -5.1952886,8.76005 -0.24233,1.21893 -0.27988,2.46531 -0.26157,3.70441 0,5.45017 -10e-7,10.90035 0,16.35052 -0.369915,1.15262 -0.635097,2.33569 -0.956889,3.50221 -2.023761,7.68088 -4.055312,15.359841 -6.074207,23.041911 -0.23029,0.98326 0.07053,2.03437 0.686914,2.81846 0.874858,1.14206 2.145085,1.89418 3.418779,2.5161 2.329785,1.09544 4.8341926,1.76693 7.3520596,2.26699 2.426157,0.46415 4.891127,0.77922 7.364547,0.77455 2.678213,-0.035 5.347523,-0.37963 7.967316,-0.92734 2.2187774,-0.47942 4.4279164,-1.10378 6.4631704,-2.12649 1.214226,-0.6273 2.419601,-1.4173 3.151193,-2.60357 0.498864,-0.79962 0.639924,-1.80464 0.375266,-2.70975 -0.167635,-0.68545 -0.335272,-1.37091 -0.502907,-2.05637 0.632003,0 1.264005,0 1.89601,0 0.298759,0.91773 0.687596,1.80558 1.142918,2.65598 0.473138,0.88509 1.029247,1.72503 1.652193,2.51148 0.577276,0.72685 1.216573,1.40215 1.902338,2.02736 0.741283,0.66295 1.53719,1.26434 2.381512,1.79028 0.852287,0.52914 1.750907,0.98465 2.68423,1.35342 0.923615,0.3676 1.880193,0.65475 2.855343,0.84958 0.835282,0.17427 1.685843,0.27672 2.537767,0.32017 0.926987,0.047 1.856039,0.009 2.778303,-0.0919 0.978302,-0.12153 1.947603,-0.31664 2.891734,-0.60204 0.960083,-0.29062 1.895549,-0.6642 2.789137,-1.12064 0.886,-0.45069 1.732873,-0.97961 2.523855,-1.58208 0.690102,-0.51668 1.335461,-1.09379 1.935361,-1.7126 0.704347,-0.727 1.341731,-1.51848 1.904145,-2.35981 0.517374,-0.77059 0.961586,-1.58741 1.349534,-2.43016 0.227775,-0.52816 0.450117,-1.05986 0.623168,-1.60907 3.179649,0 6.3593,0 9.538951,0 0.29876,0.91773 0.687597,1.80558 1.142918,2.65598 0.473139,0.88509 1.029248,1.72503 1.652196,2.51148 0.577273,0.72685 1.21657,1.40215 1.902335,2.02736 0.74128,0.66295 1.53719,1.26434 2.38151,1.79028 0.85229,0.52914 1.75091,0.98465 2.68423,1.35342 0.92362,0.3676 1.8802,0.65475 2.85535,0.84958 0.83528,0.17427 1.68584,0.27672 2.53776,0.32017 0.92699,0.047 1.85604,0.009 2.7783,-0.0919 0.97831,-0.12153 1.94761,-0.31664 2.89174,-0.60204 0.96008,-0.29062 1.89555,-0.6642 2.78914,-1.12064 0.886,-0.45069 1.73287,-0.97961 2.52385,-1.58208 0.6901,-0.51668 1.33546,-1.09379 1.93536,-1.7126 0.70435,-0.727 1.34173,-1.51848 1.90415,-2.35981 0.51737,-0.77059 0.96158,-1.58741 1.34953,-2.43016 0.22778,-0.52816 0.45012,-1.05986 0.62317,-1.60907 2.92437,0 5.84874,0 8.773113,0 0.29876,0.91773 0.6876,1.80558 1.14291,2.65598 0.47315,0.88509 1.02925,1.72503 1.6522,2.51148 0.57727,0.72685 1.21657,1.40215 1.90234,2.02736 0.74128,0.66295 1.53719,1.26434 2.38151,1.79028 0.85229,0.52914 1.7509,0.98465 2.68423,1.35342 0.92361,0.3676 1.88019,0.65475 2.85534,0.84958 0.83528,0.17427 1.68585,0.27672 2.53777,0.32017 0.92498,0.046 1.85232,0.009 2.77243,-0.0936 0.98088,-0.1198 1.9532,-0.31615 2.89855,-0.60574 0.80411,-0.23711 1.58632,-0.54645 2.34592,-0.90027 0.83354,-0.39791 1.6353,-0.86057 2.39417,-1.3872 0.68143,-0.47278 1.32797,-0.99715 1.93242,-1.56498 0.67301,-0.63296 1.29208,-1.32133 1.85422,-2.05439 0.59569,-0.78797 1.13132,-1.62289 1.57954,-2.50379 0.38807,-0.74304 0.70958,-1.52015 0.98289,-2.31221 0.0712,-0.18942 0.10666,-0.41667 0.19942,-0.58318 3.36925,-0.87658 6.39625,-2.98427 8.39417,-5.834701 1.79768,-2.53502 2.75519,-5.64449 2.7204,-8.75045 -0.002,-8.97843 0.004,-17.9569 -0.003,-26.93529 -0.009,-0.75153 -0.0968,-1.49999 -0.20102,-2.24247 -0.002,-12.39857 0.004,-24.7972 -0.003,-37.19575 -0.034,-3.43151 -1.29939,-6.83573 -3.52706,-9.44755 -2.26835,-2.69916 -5.5257,-4.54322 -9.00941,-5.0908 -1.50394,-0.26291 -3.03478,-0.17947 -4.55349,-0.19275 -20.31658,10e-4 -40.633193,-0.003 -60.949753,0.002 -0.0715,8.9e-4 -0.14292,0.002 -0.21437,0.003 z m 4.6793,10.27069 c 2.62737,0.004 5.255,-0.009 7.88221,0.007 1.72609,0.0738 3.38599,1.00235 4.35025,2.43608 0.70218,1.01354 1.02329,2.26101 0.97242,3.4878 -0.003,5.24358 0.005,10.48729 -0.004,15.73079 -0.0494,1.80874 -1.0442,3.5562 -2.57657,4.51895 -0.99375,0.64909 -2.19607,0.93124 -3.37603,0.8821 -2.51271,-0.004 -5.02569,0.009 -7.53824,-0.007 -1.79029,-0.0754 -3.5082,-1.07413 -4.45485,-2.59607 -0.63941,-0.98943 -0.91638,-2.18258 -0.86783,-3.35375 0.003,-5.23476 -0.005,-10.46965 0.004,-15.70433 0.0494,-1.80819 1.04363,-3.5547 2.57456,-4.51833 0.89785,-0.58029 1.96613,-0.8846 3.03407,-0.88323 z m 27.03918,0 c 2.627373,0.004 5.254993,-0.009 7.882203,0.007 1.72741,0.0738 3.38774,1.00386 4.35274,2.43837 0.70038,1.01348 1.02127,2.25966 0.97045,3.48551 -0.003,5.24358 0.005,10.48729 -0.004,15.73079 -0.0489,1.75341 -0.98301,3.45012 -2.43885,4.42863 -1.01354,0.70218 -2.26101,1.02329 -3.4878,0.97242 -2.52154,-0.004 -5.04333,0.009 -7.564713,-0.007 -1.79918,-0.0757 -3.52511,-1.08419 -4.46911,-2.61836 -0.62954,-0.98518 -0.90159,-2.16904 -0.85356,-3.33146 0.003,-5.23476 -0.005,-10.46965 0.004,-15.70433 0.0494,-1.80813 1.04354,-3.55482 2.57457,-4.51833 0.89785,-0.58029 1.96613,-0.8846 3.03407,-0.88323 z m 25.648043,0 c 2.62737,0.004 5.255,-0.009 7.88221,0.007 1.72609,0.0738 3.38599,1.00235 4.35025,2.43608 0.70218,1.01354 1.02329,2.26101 0.97242,3.4878 -0.003,5.24358 0.005,10.48729 -0.004,15.73079 -0.0494,1.80874 -1.0442,3.5562 -2.57657,4.51895 -0.99375,0.64909 -2.19606,0.93124 -3.37602,0.8821 -2.51272,-0.004 -5.02569,0.009 -7.53825,-0.007 -1.72662,-0.0736 -3.38631,-1.00308 -4.35167,-2.43632 -0.70113,-1.01373 -1.02236,-2.26058 -0.97152,-3.48704 0.003,-5.24358 -0.005,-10.48729 0.004,-15.73079 0.0488,-1.75478 0.98461,-3.45175 2.44114,-4.43112 0.92713,-0.63437 2.04531,-0.9728 3.16801,-0.97044 z"
       transform="matrix(0.7125,0,0,0.7125,18.400001,18.4)" />
    <path
       id="rect245"
       style="opacity:1;fill:#b3b3b3;stroke-width:0.188515"
       d="m 66.683245,26.001951 c -5.692083,0 -10.274836,4.582394 -10.274836,10.274471 V 54.139018 H 43.294791 l 4.426066,-20.36853 c 0.894005,-4.114132 -7.868105,-6.37602 -12.078254,-6.37602 -4.21015,0 -12.631863,2.022453 -11.799901,6.149581 l 4.151394,20.594969 h -6.594365 c -5.692081,0 -10.274838,4.582387 -10.274838,10.274464 v 12.350353 c -0.08046,0.239429 -0.153645,0.481886 -0.218339,0.727185 L 6.1288612,95.605453 c -0.9536192,3.615845 8.3929498,5.603917 12.8838638,5.603917 4.490906,0 13.474176,-1.777828 12.586732,-5.405087 l -0.494854,-2.023229 h 2.101655 a 11.623719,11.623719 0 0 0 11.112482,8.216996 11.623719,11.623719 0 0 0 11.11248,-8.216996 h 7.337012 a 11.623719,11.623719 0 0 0 11.112482,8.216996 11.623719,11.623719 0 0 0 11.112478,-8.216996 h 6.791352 a 11.623719,11.623719 0 0 0 11.112476,8.216996 11.623719,11.623719 0 0 0 11.18981,-8.504925 c 4.51486,-1.083904 7.85211,-5.130289 7.85211,-9.986909 V 64.413482 c 0,-0.587627 -0.0516,-1.162259 -0.14543,-1.722412 V 36.276422 c 0,-5.692077 -4.58239,-10.274471 -10.27447,-10.274471 z m 3.058593,6.567119 h 5.419087 c 2.421731,0 4.371206,1.949836 4.371206,4.371573 V 48.23391 c 0,2.421738 -1.949475,4.37121 -4.371206,4.37121 h -5.419087 c -2.421738,0 -4.371206,-1.949472 -4.371206,-4.37121 V 36.940643 c 0,-2.421737 1.949468,-4.371573 4.371206,-4.371573 z m 19.265412,0 h 5.419087 c 2.421738,0 4.371584,1.949836 4.371584,4.371573 V 48.23391 c 0,2.421738 -1.949846,4.37121 -4.371584,4.37121 H 89.00725 c -2.421737,0 -4.371205,-1.949472 -4.371205,-4.37121 V 36.940643 c 0,-2.421737 1.949468,-4.371573 4.371205,-4.371573 z m 18.27424,0 h 5.41908 c 2.42173,0 4.37121,1.949836 4.37121,4.371573 V 48.23391 c 0,2.421738 -1.94948,4.37121 -4.37121,4.37121 h -5.41908 c -2.42174,0 -4.37158,-1.949472 -4.37158,-4.37121 V 36.940643 c 0,-2.421737 1.94984,-4.371573 4.37158,-4.371573 z" />
  </g>
</svg>
